Coordinates
version=1
nRows=12
nColumns=24
inDegrees=yes

Units are S.I. units (second, meters, Newtons, ...)
Angles are in degrees.

endheader
time	pelvis_tilt	pelvis_list	pelvis_rotation	pelvis_tx	pelvis_ty	pelvis_tz	hip_flexion_r	hip_adduction_r	hip_rotation_r	knee_angle_r	ankle_angle_r	subtalar_angle_r	mtp_angle_r	hip_flexion_l	hip_adduction_l	hip_rotation_l	knee_angle_l	ankle_angle_l	subtalar_angle_l	mtp_angle_l	lumbar_extension	lumbar_bending	lumbar_rotation
      5.29000000	      2.24448032	     -0.20710884	      2.84576731	     -2.54718152	      0.91688351	      0.18444658	     15.47865253	      4.32598484	     -8.84095980	      2.94603102	      5.34048777	      0.27901725	      0.00000000	    -15.06408226	      4.22485836	     -3.22690126	     -9.28587294	     17.24640429	      4.93034752	      0.00000000	    -21.61672684	      1.83383267	     -6.49331162
      5.30000000	      2.60218257	     -0.44724894	      3.00289044	     -2.53589529	      0.91654830	      0.18495996	     15.16063648	      4.59954963	     -7.82901104	      1.74423780	      4.04768040	     -0.55293670	      0.00000000	    -15.59999471	      3.76272221	     -3.30363401	    -10.38443235	     17.09516135	      5.14546574	      0.00000000	    -21.76145823	      2.17547749	     -6.35139422
      5.31000000	      2.88471208	     -0.72636636	      3.08454087	     -2.52447863	      0.91636603	      0.18562862	     14.86371375	      4.94809606	     -6.31897729	      0.59312019	      2.24309062	     -2.24668854	      0.00000000	    -15.95716173	      3.24719149	     -3.59430875	    -11.66020680	     16.83497494	      5.60841205	      0.00000000	    -21.78698138	      2.53077696	     -6.08227925
      5.32000000	      3.26305262	     -1.10422942	      3.16982797	     -2.51292869	      0.91666962	      0.18631237	     14.43327337	      5.42399773	     -4.99353342	     -0.52572869	      0.44674340	     -3.79072359	      0.00000000	    -16.34066454	      2.59849300	     -3.93520056	    -13.05123253	     16.37299196	      6.10636186	      0.00000000	    -21.90778995	      3.02502230	     -5.82680958
      5.33000000	      3.66793570	     -1.54516810	      3.21498445	     -2.50132657	      0.91737451	      0.18704055	     13.97586268	      5.98614834	     -3.92049424	     -1.66047337	     -1.14185190	     -5.09480709	      0.00000000	    -16.64027373	      1.87149826	     -4.35243521	    -14.61922513	     15.68568185	      6.64603187	      0.00000000	    -22.05184534	      3.59316617	     -5.55471964
      5.34000000	      4.08912200	     -2.01043019	      3.22385865	     -2.48972567	      0.91844208	      0.18778457	     13.51157265	      6.58159860	     -3.12838997	     -2.84267527	     -2.32505853	     -6.05926130	      0.00000000	    -16.82513831	      1.10422081	     -4.87800027	    -16.38459000	     14.73209783	      7.19192650	      0.00000000	    -22.20868600	      4.19669457	     -5.26132303
      5.35000000	      4.45907096	     -2.46498952	      3.18353393	     -2.47817122	      0.91972992	      0.18854685	     13.10385831	      7.16364814	     -2.58454315	     -4.06360670	     -3.04883091	     -6.71442853	      0.00000000	    -16.80878505	      0.34517517	     -5.44899216	    -18.36140145	     13.42643966	      7.66202916	      0.00000000	    -22.29003746	      4.78681817	     -4.96127551
      5.36000000	      4.84360520	     -2.87660447	      3.10402689	     -2.46673851	      0.92125066	      0.18932352	     12.67633184	      7.68882885	     -2.46061604	     -5.30537217	     -3.15673500	     -6.83654190	      0.00000000	    -16.65542202	     -0.37365594	     -6.03355089	    -20.53420676	     11.68590367	      7.82612722	      0.00000000	    -22.40208972	      5.31874033	     -4.66524511
      5.37000000	      5.19520281	     -3.23889626	      3.02845926	     -2.45546034	      0.92284926	      0.19010328	     12.22986451	      8.14870513	     -2.44074245	     -6.48064399	     -2.90406135	     -6.93856089	      0.00000000	    -16.28466229	     -1.08494890	     -6.67057850	    -22.93786505	      9.62449177	      7.98213220	      0.00000000	    -22.47491736	      5.80305111	     -4.45017272
      5.38000000	      5.48283966	     -3.55615638	      2.94971872	     -2.44440340	      0.92442685	      0.19093490	     11.80963182	      8.53073016	     -2.90075666	     -7.57337557	     -2.07196386	     -6.35996005	      0.00000000	    -15.65537344	     -1.78889121	     -7.30205995	    -25.56973196	      7.24625186	      8.00115694	      0.00000000	    -22.49234204	      6.20074240	     -4.23865934
      5.39000000	      5.69812920	     -3.81007020	      2.90889757	     -2.43359537	      0.92592237	      0.19172594	     11.35562103	      8.83665628	     -3.27490407	     -8.46639568	     -1.16520381	     -5.90766830	      0.00000000	    -14.79656265	     -2.42296295	     -7.68024380	    -28.31960617	      4.43570104	      7.43771670	      0.00000000	    -22.44470696	      6.53153119	     -4.10933989
      5.40000000	      5.85539865	     -4.03632021	      2.91073832	     -2.42306087	      0.92731369	      0.19250498	     10.87505738	      9.10335329	     -3.75288214	     -9.17680186	     -0.13742904	     -5.32773927	      0.00000000	    -13.72126212	     -3.04481666	     -7.90911854	    -31.18956504	      1.45131113	      6.60475127	      0.00000000	    -22.36489370	      6.81462779	     -4.00601131
